<svg version="1.1" xmlns="http://www.w3.org/2000/svg" viewBox="0 0 2164.289896791018 1297.7465782916192" width="6492.869690373053" height="3893.2397348748577">
  <!-- svg-source:excalidraw -->
  
  <defs>
    <style class="style-fonts">
      @font-face {
        font-family: "Virgil";
        src: url("https://excalidraw.com/Virgil.woff2");
      }
      @font-face {
        font-family: "Cascadia";
        src: url("https://excalidraw.com/Cascadia.woff2");
      }
      @font-face {
        font-family: "Assistant";
        src: url("https://excalidraw.com/Assistant-Regular.woff2");
      }
    </style>
    
  </defs>
  <g stroke-linecap="round" transform="translate(781.9737723214281 473.7639896703747) rotate(0 274.2890625 133.7104446978335)"><path d="M1.5 1.87 L546.97 0.76 L547.74 266.92 L-0.49 266.32" stroke="none" stroke-width="0" fill="#b2f2bb"></path><path d="M0 0 C148.24 -0.12, 296.82 -1.1, 548.58 0 M0 0 C167.78 0.87, 336.4 0.87, 548.58 0 M548.58 0 C548.26 92.82, 549.55 184.49, 548.58 267.42 M548.58 0 C547.12 92.39, 547.04 184.26, 548.58 267.42 M548.58 267.42 C364.33 265.71, 180.32 265.22, 0 267.42 M548.58 267.42 C329.11 268.97, 110.4 269.08, 0 267.42 M0 267.42 C-1.92 212.39, -1 156.25, 0 0 M0 267.42 C-0.17 186.27, -1.52 104.44, 0 0" stroke="#1971c2" stroke-width="2" fill="none"></path></g><g stroke-linecap="round" transform="translate(830.1724330357138 10) rotate(0 170.6640625 100.5990102412537)"><path d="M-1.61 0.76 L340.49 -0.5 L340.84 200.1 L-0.73 201.01" stroke="none" stroke-width="0" fill="#ffec99"></path><path d="M0 0 C117.72 -2.54, 232.98 -1.64, 341.33 0 M0 0 C89.9 -0.15, 178.97 -0.2, 341.33 0 M341.33 0 C342.08 67.19, 341.8 132.33, 341.33 201.2 M341.33 0 C340.15 57.85, 340.93 117.36, 341.33 201.2 M341.33 201.2 C267.48 200.64, 192.86 200.76, 0 201.2 M341.33 201.2 C214.77 201.06, 86.26 201.41, 0 201.2 M0 201.2 C1.06 141.48, 0.62 85.65, 0 0 M0 201.2 C-2.35 125.08, -0.94 51.01, 0 0" stroke="#1e1e1e" stroke-width="2" fill="none"></path></g><g stroke-linecap="round" transform="translate(772.6142426184579 1035.692561098946) rotate(0 254.30035581683165 108.16592090544185)"><path d="M-0.83 -0.5 L508.11 -1.1 L507.87 216.14 L1.06 214.79" stroke="none" stroke-width="0" fill="#eebefa"></path><path d="M0 0 C202.28 0.85, 404.15 0, 508.6 0 M0 0 C157.1 -0.14, 313.98 -0.22, 508.6 0 M508.6 0 C510.57 75.02, 509.62 151.25, 508.6 216.33 M508.6 0 C507.96 61.44, 506.95 123.25, 508.6 216.33 M508.6 216.33 C353.3 214.88, 196.98 214.87, 0 216.33 M508.6 216.33 C361.15 216.95, 214.42 216.55, 0 216.33 M0 216.33 C-0.46 154.02, 0.79 91.82, 0 0 M0 216.33 C2.19 150.06, 0.83 82.49, 0 0" stroke="#1e1e1e" stroke-width="2" fill="none"></path></g><g stroke-linecap="round" transform="translate(1730.8007038985138 251.04408078696906) rotate(0 211.74459644625188 88.5385258702744)"><path d="M-0.49 -1.1 L422.76 -0.19 L424.55 175.53 L0.96 178.93" stroke="none" stroke-width="0" fill="#4dabf7"></path><path d="M0 0 C116.16 -1.64, 233.21 -0.08, 423.49 0 M0 0 C130.19 -0.1, 260.32 0.33, 423.49 0 M423.49 0 C424.14 57.62, 423.99 115.82, 423.49 177.08 M423.49 0 C423.32 36.22, 424.2 72.74, 423.49 177.08 M423.49 177.08 C320.03 175.6, 214.93 177.12, 0 177.08 M423.49 177.08 C289.26 178.44, 155.09 178.75, 0 177.08 M0 177.08 C1.44 141.26, 0.14 100.23, 0 0 M0 177.08 C-2.13 136.26, -1.74 94.44, 0 0" stroke="#1e1e1e" stroke-width="2" fill="none"></path></g><g stroke-linecap="round" transform="translate(1640.902962561881 697.8617471592693) rotate(0 218.4583959512022 78.27254982698138)"><path d="M-0.73 -0.19 L437.98 -1.54 L437.87 158.39 L-0.96 155.68" stroke="none" stroke-width="0" fill="#ff8787"></path><path d="M0 0 C150.17 2.25, 300.24 1.85, 436.92 0 M0 0 C131.23 0.75, 262.08 0.67, 436.92 0 M436.92 0 C436.48 37.45, 434.85 77.63, 436.92 156.55 M436.92 0 C435.72 46.4, 435.12 92.23, 436.92 156.55 M436.92 156.55 C325.28 156.55, 214.02 154.59, 0 156.55 M436.92 156.55 C276.01 156.01, 114.74 155.88, 0 156.55 M0 156.55 C-0.98 101.45, -2.53 51.11, 0 0 M0 156.55 C0.85 94.69, 1.02 32.8, 0 0" stroke="#1e1e1e" stroke-width="2" fill="none"></path></g><g stroke-linecap="round" transform="translate(240.59095982142833 35.62113252751794) rotate(0 181.87592821782178 79.5)"><path d="M1.06 -1.54 L364.71 1.85 L362.8 158.13 L-1.91 159.97" stroke="none" stroke-width="0" fill="#ffec99"></path><path d="M0 0 C86.13 -1.37, 172.08 -1.53, 363.75 0 M0 0 C102.12 -1.12, 203.53 -1.46, 363.75 0 M363.75 0 C361.57 42.08, 363.33 81.1, 363.75 159 M363.75 0 C363.32 52.57, 363.41 103.88, 363.75 159 M363.75 159 C271.26 160.06, 179.2 161.11, 0 159 M363.75 159 C265.29 159.66, 168.18 160.11, 0 159 M0 159 C-1.51 98.59, 1.71 33.56, 0 0 M0 159 C0.42 104.72, 0.3 51.44, 0 0" stroke="#1e1e1e" stroke-width="2" fill="none"></path></g><g stroke-linecap="round" transform="translate(1609.44921875 1144.7639896703747) rotate(0 260.07391486916526 71.49129431062235)"><path d="M0.96 1.85 L519.19 -0.87 L518.24 143.96 L-1.85 141.92" stroke="none" stroke-width="0" fill="#ff8787"></path><path d="M0 0 C199.91 -0.67, 399.67 -0.51, 520.15 0 M0 0 C187.93 -0.99, 376.13 -1.02, 520.15 0 M520.15 0 C518.59 34.07, 519.25 71.5, 520.15 142.98 M520.15 0 C518.93 54.84, 518.93 108.12, 520.15 142.98 M520.15 142.98 C313.31 140.92, 105.14 140.94, 0 142.98 M520.15 142.98 C349.71 143.36, 179.31 143.1, 0 142.98 M0 142.98 C2.83 110.13, 1.72 79.67, 0 0 M0 142.98 C-0.02 103.6, 0.88 63.64, 0 0" stroke="#1e1e1e" stroke-width="2" fill="none"></path></g><g stroke-linecap="round"><g transform="translate(781.9737723214281 539.4182200010474) rotate(0 274.2890625 0)"><path d="M0 0 C188.59 -0.28, 377.99 -0.45, 548.58 0 M0 0 C189.61 0.12, 379.34 -0.21, 548.58 0" stroke="#1971c2" stroke-width="1" fill="none"></path></g></g><mask></mask><g stroke-linecap="round"><g transform="translate(781.9737723214281 565.0393830569197) rotate(0 274.2890625 0)"><path d="M0 0 C182.23 -0.88, 363.83 -1.56, 548.58 0 M0 0 C159.9 -0.04, 320.34 0.31, 548.58 0" stroke="#1971c2" stroke-width="1" fill="none"></path></g></g><mask></mask><g stroke-linecap="round"><g transform="translate(830.1724330357138 71.56058835658803) rotate(0 170.6640625 0)"><path d="M0 0 C120.48 -1.4, 239.63 -1.21, 341.33 0 M0 0 C97.31 2.14, 193.59 2.36, 341.33 0" stroke="#000" stroke-width="1" fill="none"></path></g></g><mask></mask><g stroke-linecap="round"><g transform="translate(830.1724330357138 95.58423259330539) rotate(0 170.6640625 0)"><path d="M0 0 C112.49 0.7, 224.99 0.56, 341.33 0 M0 0 C68.82 0.36, 138.75 0.72, 341.33 0" stroke="#000" stroke-width="1" fill="none"></path></g></g><mask></mask><g stroke-linecap="round"><g transform="translate(772.6142426184579 1123.5104374776215) rotate(0 254.30035581683165 0)"><path d="M0 0 C124.81 0.41, 249.1 1.1, 508.6 0 M0 0 C148.23 -0.18, 296.19 -0.1, 508.6 0" stroke="#000" stroke-width="1" fill="none"></path></g></g><mask></mask><g stroke-linecap="round"><g transform="translate(772.6142426184579 1157.7808282595438) rotate(0 254.30035581683165 0)"><path d="M0 0 C131.51 1.32, 264.51 0.38, 508.6 0 M0 0 C164.77 -1.2, 329.78 -1.31, 508.6 0" stroke="#000" stroke-width="1" fill="none"></path></g></g><mask></mask><g stroke-linecap="round"><g transform="translate(1730.8007038985138 322.9268443648156) rotate(0 211.74459644625188 0)"><path d="M0 0 C105.59 -1.66, 211.63 -0.74, 423.49 0 M0 0 C160.04 -1.84, 320.32 -2.29, 423.49 0" stroke="#000" stroke-width="1" fill="none"></path></g></g><mask></mask><g stroke-linecap="round"><g transform="translate(1730.8007038985138 350.97865454153623) rotate(0 211.74459644625188 0)"><path d="M0 0 C142.64 1.87, 285.6 1.23, 423.49 0 M0 0 C169.05 -1.68, 339.09 -1.54, 423.49 0" stroke="#000" stroke-width="1" fill="none"></path></g></g><mask></mask><g stroke-linecap="round"><g transform="translate(1640.902962561881 761.4097579098878) rotate(0 218.4583959512022 0)"><path d="M0 0 C96.66 -0.7, 192.75 -0.6, 436.92 0 M0 0 C163.34 0.32, 325.21 0.58, 436.92 0" stroke="#000" stroke-width="1" fill="none"></path></g></g><mask></mask><g stroke-linecap="round"><g transform="translate(1640.902962561881 786.2089816174463) rotate(0 218.4583959512022 0)"><path d="M0 0 C135.11 0.74, 268.93 0.73, 436.92 0 M0 0 C125.86 -0.03, 252.63 -0.53, 436.92 0" stroke="#000" stroke-width="1" fill="none"></path></g></g><mask></mask><g stroke-linecap="round"><g transform="translate(240.59095982142833 100.1656869829635) rotate(0 181.87592821782178 0)"><path d="M0 0 C90.43 0.45, 178.91 2.26, 363.75 0 M0 0 C115.18 -1.75, 230.44 -1.38, 363.75 0" stroke="#000" stroke-width="1" fill="none"></path></g></g><mask></mask><g stroke-linecap="round"><g transform="translate(240.59095982142833 125.35380579484467) rotate(0 181.87592821782178 0)"><path d="M0 0 C92.72 2.27, 185.92 -0.16, 363.75 0 M0 0 C133.88 0.88, 267.31 0.73, 363.75 0" stroke="#000" stroke-width="1" fill="none"></path></g></g><mask></mask><g stroke-linecap="round"><g transform="translate(1609.44921875 1202.8064266354343) rotate(0 260.07391486916526 0)"><path d="M0 0 C132.7 -2.81, 265.67 -2.14, 520.15 0 M0 0 C139.66 -0.57, 280.2 -0.28, 520.15 0" stroke="#000" stroke-width="1" fill="none"></path></g></g><mask></mask><g stroke-linecap="round"><g transform="translate(1609.44921875 1272.174217154652) rotate(0 260.07391486916526 0)"><path d="M0 0 C207.93 1.88, 414.52 1.9, 520.15 0 M0 0 C170.77 0.22, 341.56 -0.04, 520.15 0" stroke="#000" stroke-width="1" fill="none"></path></g></g><mask></mask><g mask="url(#mask-ThLWMEcGUxY98HxyOEJBl)" stroke-linecap="round"><g transform="translate(1101.55763846621 472.76398967037477) rotate(0 -1.0005110981474559 -130.28298459393366)"><path d="M-0.13 -0.37 C-0.29 -43.88, -1.62 -216.87, -2.1 -260.23 M-1.66 -1.61 C-1.89 -45.57, -3.26 -219.25, -3.11 -262.18" stroke="#1e1e1e" stroke-width="2" fill="none"></path></g></g><mask id="mask-ThLWMEcGUxY98HxyOEJBl"><rect x="0" y="0" fill="#fff" width="1203.5586606625047" height="833.3299588582421"></rect><rect x="1067.6991409178672" y="324.9810050764411" fill="#000" width="65.71597290039062" height="35" opacity="1"></rect></mask><g transform="translate(1067.6991409178672 324.9810050764411) rotate(0 32.23294291450219 16.509839527220493)"><text x="32.85798645019531" y="24.528" font-family="Virgil, Segoe UI Emoji" font-size="28px" fill="#1971c2" text-anchor="middle" style="white-space: pre;" direction="ltr" dominant-baseline="alphabetic">Uses</text></g><g mask="url(#mask-411xgs6-ZDz4OEgIaRNXJ)" stroke-linecap="round"><g transform="translate(982.5150645544501 742.1848790660417) rotate(0 0.2716337145532748 146.25384101645216)"><path d="M-0.1 0.34 C-0.17 49.16, -0.7 243.71, -0.51 292.55 M-1.62 -0.53 C-1.31 48.53, 1.29 245.43, 1.65 294.11" stroke="#1e1e1e" stroke-width="2" fill="none"></path></g></g><mask id="mask-411xgs6-ZDz4OEgIaRNXJ"><rect x="0" y="0" fill="#fff" width="1083.0583319835566" height="1134.692561098946"></rect><rect x="949.9287118188079" y="870.9387200824939" fill="#000" width="65.71597290039062" height="35" opacity="1"></rect></mask><g transform="translate(949.9287118188081 870.9387200824939) rotate(0 32.603956207362955 18.0361482383031)"><text x="32.85798645019531" y="24.528" font-family="Virgil, Segoe UI Emoji" font-size="28px" fill="#1971c2" text-anchor="middle" style="white-space: pre;" direction="ltr" dominant-baseline="alphabetic">Uses</text></g><g mask="url(#mask-DcQolHrx-uMrujslVaCyi)" stroke-linecap="round"><g transform="translate(1331.551897321428 479.2065657113477) rotate(0 199.12440328854302 -53.520209942320136)"><path d="M-1.05 0.04 C65.42 -17.7, 332.02 -88.31, 398.75 -106.14 M0.6 -0.98 C66.97 -19.08, 331.64 -90.36, 398.06 -107.78" stroke="#1e1e1e" stroke-width="2" fill="none"></path></g></g><mask id="mask-DcQolHrx-uMrujslVaCyi"><rect x="0" y="0" fill="#fff" width="1829.800703898514" height="686.246985595988"></rect><rect x="1455.3983312496196" y="408.1863557690276" fill="#000" width="150.55593872070312" height="35" opacity="1"></rect></mask><g transform="translate(1455.3983312496196 408.1863557690276) rotate(0 75.00156477764233 17.150379405231206)"><text x="75.27796936035156" y="24.528" font-family="Virgil, Segoe UI Emoji" font-size="28px" fill="#1971c2" text-anchor="middle" style="white-space: pre;" direction="ltr" dominant-baseline="alphabetic">Integrates</text></g><g mask="url(#mask-HpTXc5Hs6ENpmh6RBZpFD)" stroke-linecap="round"><g transform="translate(1331.5518973214282 622.6940964617511) rotate(0 193.41153267644455 37.083825348759134)"><path d="M0.5 0.9 C65.32 13.28, 323.67 62.21, 387.9 74.29 M-0.7 0.33 C64.15 12.92, 322.69 63.57, 387.51 75.89" stroke="#1e1e1e" stroke-width="2" fill="none"></path></g></g><mask id="mask-HpTXc5Hs6ENpmh6RBZpFD"><rect x="0" y="0" fill="#fff" width="1818.3749626743174" height="796.8617471592694"></rect><rect x="1473.9754615530487" y="642.2779218105102" fill="#000" width="101.97593688964844" height="35" opacity="1"></rect></mask><g transform="translate(1473.9754615530485 642.2779218105102) rotate(0 51.17485802726344 18.52756034028716)"><text x="50.98796844482422" y="24.528" font-family="Virgil, Segoe UI Emoji" font-size="28px" fill="#1971c2" text-anchor="middle" style="white-space: pre;" direction="ltr" dominant-baseline="alphabetic">Utilizes</text></g><g mask="url(#mask-KAr1SKlWamGtP7Kdqn_NR)" stroke-linecap="round"><g transform="translate(829.1724330357138 111.94364544665552) rotate(0 -111.91480838932094 0.8743137762236302)"><path d="M1.07 0.12 C-36.48 0.13, -187.47 0.48, -224.81 0.94 M0.18 -0.86 C-37.05 -0.8, -185.38 1.72, -222.61 2.05" stroke="#1e1e1e" stroke-width="2" fill="none"></path></g></g><mask id="mask-KAr1SKlWamGtP7Kdqn_NR"><rect x="0" y="0" fill="#fff" width="1153.0020498143556" height="213.69227299910278"></rect><rect x="661.2016477787171" y="95.31795922287915" fill="#000" width="112.11195373535156" height="35" opacity="1"></rect></mask><g transform="translate(661.201647778717 95.31795922287915) rotate(0 56.103227937966594 17.22194201421928)"><text x="56.05597686767578" y="24.528" font-family="Virgil, Segoe UI Emoji" font-size="28px" fill="#1971c2" text-anchor="middle" style="white-space: pre;" direction="ltr" dominant-baseline="alphabetic">Includes</text></g><g mask="url(#mask-55_9MMQ0I8v-pWE139RoB)" stroke-linecap="round"><g transform="translate(1861.3817948747942 855.406846813232) rotate(0 3.253120935099787 144.17857142857127)"><path d="M-0.98 -0.81 C0.08 47.42, 6.32 241.21, 7.41 289.48 M0.71 1.38 C1.59 49.29, 5.73 240.39, 6.93 287.95" stroke="#1e1e1e" stroke-width="2" fill="none"></path></g></g><mask id="mask-55_9MMQ0I8v-pWE139RoB"><rect x="0" y="0" fill="#fff" width="1967.8880367449938" height="1243.7639896703745"></rect><rect x="1799.520947914386" y="982.0854182418034" fill="#000" width="130.22793579101562" height="35" opacity="1"></rect></mask><g transform="translate(1799.520947914386 982.0854182418034) rotate(0 65.07451888397327 17.656764220446377)"><text x="65.11396789550781" y="24.528" font-family="Virgil, Segoe UI Emoji" font-size="28px" fill="#1971c2" text-anchor="middle" style="white-space: pre;" direction="ltr" dominant-baseline="alphabetic">Trains on</text></g><g transform="translate(924.2287748157269 481.7706031253348) rotate(0 115.20791625976562 20.01653363740023)"><text x="0" y="28.055173546180157" font-family="Virgil, Segoe UI Emoji" font-size="32.02645381984036px" fill="#1971c2" text-anchor="start" style="white-space: pre;" direction="ltr" dominant-baseline="alphabetic">SAYO Antivirus</text></g><g transform="translate(793.9836925038683 573.0459965118798) rotate(0 146.9052547309554 20.016533637400226)"><text x="0" y="28.055173546180157" font-family="Virgil, Segoe UI Emoji" font-size="32.02645381984036px" fill="#1971c2" text-anchor="start" style="white-space: pre;" direction="ltr" dominant-baseline="alphabetic">+Manual Scanning()</text></g><g transform="translate(793.9836925038683 625.8896453146165) rotate(0 124.37466939162772 20.016533637400226)"><text x="0" y="28.055173546180157" font-family="Virgil, Segoe UI Emoji" font-size="32.02645381984036px" fill="#1971c2" text-anchor="start" style="white-space: pre;" direction="ltr" dominant-baseline="alphabetic">+URL Scanning()</text></g><g transform="translate(793.9836925038683 678.733294117353) rotate(0 234.7536963649215 20.016533637400226)"><text x="0" y="28.055173546180157" font-family="Virgil, Segoe UI Emoji" font-size="32.02645381984036px" fill="#1971c2" text-anchor="start" style="white-space: pre;" direction="ltr" dominant-baseline="alphabetic">+Signature-Based Detection()</text></g><g transform="translate(942.1850203484156 17.50738882397411) rotate(0 43.16745137175269 18.76847205993539)"><text x="0" y="26.30589043920544" font-family="Virgil, Segoe UI Emoji" font-size="30.029555295896625px" fill="#1e1e1e" text-anchor="start" style="white-space: pre;" direction="ltr" dominant-baseline="alphabetic">Engine</text></g><g transform="translate(841.433516271675 103.0916214172795) rotate(0 94.11255802335717 18.76847205993539)"><text x="0" y="26.30589043920544" font-family="Virgil, Segoe UI Emoji" font-size="30.029555295896625px" fill="#1e1e1e" text-anchor="start" style="white-space: pre;" direction="ltr" dominant-baseline="alphabetic">+Scan Files()</text></g><g transform="translate(841.433516271675 152.6403876555089) rotate(0 142.00964373455434 18.76847205993539)"><text x="0" y="26.30589043920544" font-family="Virgil, Segoe UI Emoji" font-size="30.029555295896625px" fill="#1e1e1e" text-anchor="start" style="white-space: pre;" direction="ltr" dominant-baseline="alphabetic">+Scan Directories()</text></g><g transform="translate(876.8477700503881 1046.4020582182966) rotate(0 156.41513061523438 26.773742798376702)"><text x="0" y="37.526077906204776" font-family="Virgil, Segoe UI Emoji" font-size="42.83798847740271px" fill="#1e1e1e" text-anchor="start" style="white-space: pre;" direction="ltr" dominant-baseline="alphabetic">GUI Interface</text></g><g transform="translate(788.6784882974838 1168.4903253788943) rotate(0 217.4668661355583 26.773742798376674)"><text x="0" y="37.526077906204776" font-family="Virgil, Segoe UI Emoji" font-size="42.83798847740271px" fill="#1e1e1e" text-anchor="start" style="white-space: pre;" direction="ltr" dominant-baseline="alphabetic">+Tkinter Interface()</text></g><g transform="translate(1808.3677942455693 259.81027146719424) rotate(0 140.0997314453125 21.915476700562976)"><text x="0" y="30.71673214350907" font-family="Virgil, Segoe UI Emoji" font-size="35.06476272090076px" fill="#1e1e1e" text-anchor="start" style="white-space: pre;" direction="ltr" dominant-baseline="alphabetic">Virus Total API</text></g><g transform="translate(1743.9499899188518 359.74484522176135) rotate(0 182.0736573677391 21.915476700562976)"><text x="0" y="30.71673214350907" font-family="Virgil, Segoe UI Emoji" font-size="35.06476272090076px" fill="#1e1e1e" text-anchor="start" style="white-space: pre;" direction="ltr" dominant-baseline="alphabetic">+Check URL Safety()</text></g><g transform="translate(1670.1246892166569 713.1531148001061) rotate(0 197.11519996554614 21.888263598938288)"><text x="0" y="30.678590260271903" font-family="Virgil, Segoe UI Emoji" font-size="35.02122175830126px" fill="#1e1e1e" text-anchor="start" style="white-space: pre;" direction="ltr" dominant-baseline="alphabetic">Machine Learning Model</text></g><g transform="translate(1652.5275986747988 793.9587390260583) rotate(0 150.2521821703175 19.37439352153004)"><text x="0" y="27.15514995977651" font-family="Virgil, Segoe UI Emoji" font-size="30.999029634448068px" fill="#1e1e1e" text-anchor="start" style="white-space: pre;" direction="ltr" dominant-baseline="alphabetic">+Identify Malware()</text></g><g transform="translate(252.39789051449765 43.49241965623082) rotate(0 153.3798053854763 19.678217821782198)"><text x="0" y="27.580990099009902" font-family="Virgil, Segoe UI Emoji" font-size="31.48514851485149px" fill="#1e1e1e" text-anchor="start" style="white-space: pre;" direction="ltr" dominant-baseline="alphabetic">YARA Rule Matching</text></g><g transform="translate(252.39789051449765 133.22509292355755) rotate(0 117.61268676153504 19.67821782178217)"><text x="0" y="27.580990099009902" font-family="Virgil, Segoe UI Emoji" font-size="31.48514851485149px" fill="#1e1e1e" text-anchor="start" style="white-space: pre;" direction="ltr" dominant-baseline="alphabetic">+Match Rules()</text></g><g transform="translate(1652.7045485842891 1151.8423356417234) rotate(0 203.8278933327839 17.69586492837189)"><text x="0" y="24.80252428360602" font-family="Virgil, Segoe UI Emoji" font-size="28.313383885394995px" fill="#1e1e1e" text-anchor="start" style="white-space: pre;" direction="ltr" dominant-baseline="alphabetic">Malware Signatures Dataset</text></g><g transform="translate(1620.066737707023 1215.547449383862) rotate(0 234.4771227481649 17.69586492837186)"><text x="0" y="24.80252428360602" font-family="Virgil, Segoe UI Emoji" font-size="28.313383885394995px" fill="#1e1e1e" text-anchor="start" style="white-space: pre;" direction="ltr" dominant-baseline="alphabetic">+Dataset of Malware Signatures</text></g><g stroke-linecap="round" transform="translate(10 505.2533605906965) rotate(0 177.9412188135772 95.76362125555279)"><path d="M-0.43 1.97 L357.05 0.39 L354.5 189.76 L0.43 189.7" stroke="none" stroke-width="0" fill="#ffd43b"></path><path d="M0 0 C112.73 0.1, 223.82 0.7, 355.88 0 M0 0 C138.82 -0.22, 276.73 0.12, 355.88 0 M355.88 0 C355.43 58.21, 354.88 110.77, 355.88 191.53 M355.88 0 C353.87 66.23, 353.43 133.25, 355.88 191.53 M355.88 191.53 C260.96 190.78, 167.55 191.22, 0 191.53 M355.88 191.53 C219.75 192.48, 82.08 193.09, 0 191.53 M0 191.53 C1.16 149.19, 2.55 110.89, 0 0 M0 191.53 C-1.09 117.3, -0.43 45.34, 0 0" stroke="#1e1e1e" stroke-width="2" fill="none"></path></g><g stroke-linecap="round"><g transform="translate(10 557.015209508919) rotate(0 177.9412188135772 0)"><path d="M0 0 C115.43 0.07, 232.7 -1.43, 355.88 0 M0 0 C102.09 1.64, 204.33 2.01, 355.88 0" stroke="#000" stroke-width="2" fill="none"></path></g></g><mask></mask><g stroke-linecap="round"><g transform="translate(10 577.2149554282254) rotate(0 177.9412188135772 0)"><path d="M0 0 C126.68 -2.49, 250.91 -1.44, 355.88 0 M0 0 C78.28 0.82, 157.14 0.3, 355.88 0" stroke="#000" stroke-width="2" fill="none"></path></g></g><mask></mask><g transform="translate(115.46863089967496 511.5657811904797) rotate(0 91.04001316749316 22.746415585108608)"><text x="0" y="31.881376084088227" font-family="Virgil, Segoe UI Emoji" font-size="36.39426493617377px" fill="#1e1e1e" text-anchor="start" style="white-space: pre;" direction="ltr" dominant-baseline="alphabetic">Github</text></g><g transform="translate(19.468630899674963 583.5273760280087) rotate(0 141.74581909179688 45.83648810449925)"><text x="0" y="32.12221086363308" font-family="Virgil, Segoe UI Emoji" font-size="36.6691904835994px" fill="#1e1e1e" text-anchor="start" style="white-space: pre;" direction="ltr" dominant-baseline="alphabetic">+Collaboration()</text><text x="0" y="77.95869896813232" font-family="Virgil, Segoe UI Emoji" font-size="36.6691904835994px" fill="#1e1e1e" text-anchor="start" style="white-space: pre;" direction="ltr" dominant-baseline="alphabetic">+ Deployment()</text></g><g mask="url(#mask-4SDgMU-UtE16BwkPcFwsK)" stroke-linecap="round"><g transform="translate(784.7964510499295 605.7921776190811) rotate(0 -208.18088527522644 1.0394854465906747)"><path d="M0.93 -0.66 C-68.32 -0.35, -346.88 0.69, -416.29 1.09 M-0.05 1.61 C-69.37 2.11, -347.9 1.89, -417.2 2.11" stroke="#1e1e1e" stroke-width="2" fill="none"></path></g></g><mask id="mask-4SDgMU-UtE16BwkPcFwsK"><rect x="0" y="0" fill="#fff" width="1301.1582216003824" height="707.8711485122625"></rect><rect x="533.0335726716758" y="589.3316630656718" fill="#000" width="87.16398620605469" height="35" opacity="1"></rect></mask><g transform="translate(533.0335726716758 589.3316630656718) rotate(0 43.62875011087863 17.187525988430714)"><text x="43.581993103027344" y="24.528" font-family="Virgil, Segoe UI Emoji" font-size="28px" fill="#1971c2" text-anchor="middle" style="white-space: pre;" direction="ltr" dominant-baseline="alphabetic">CI/CD</text></g></svg>